<?xml version="1.0" standalone="no"?>
<svg viewBox="0 0 200 200" xmlns="http://www.w3.org/2000/svg">
  <path fill="#8F43EE" d="M44.1,-63.9C58.6,-59.2,72.9,-49.5,81.8,-35.7C90.7,-21.8,94.3,-3.9,88.3,10.1C82.2,24.1,66.6,34.1,54.1,44.6C41.5,55.1,32.1,66.1,19.5,72.5C7,79,-8.6,80.8,-21,75.4C-33.4,70,-42.6,57.4,-53.7,45.8C-64.8,34.2,-77.9,23.7,-80,11.3C-82.1,-1.1,-73.2,-15.2,-65.4,-28.9C-57.7,-42.6,-51,-55.8,-40.3,-62.2C-29.6,-68.6,-14.8,-68.2,0,-68.2C14.8,-68.2,29.5,-68.6,44.1,-63.9Z" transform="translate(100 100)" />
  <!-- <path fill="#8A3FFC" d="M44.1,-63.9C58.6,-59.2,72.9,-49.5,81.8,-35.7C90.7,-21.8,94.3,-3.9,88.3,10.1C82.2,24.1,66.6,34.1,54.1,44.6C41.5,55.1,32.1,66.1,19.5,72.5C7,79,-8.6,80.8,-21,75.4C-33.4,70,-42.6,57.4,-53.7,45.8C-64.8,34.2,-77.9,23.7,-80,11.3C-82.1,-1.1,-73.2,-15.2,-65.4,-28.9C-57.7,-42.6,-51,-55.8,-40.3,-62.2C-29.6,-68.6,-14.8,-68.2,0,-68.2C14.8,-68.2,29.5,-68.6,44.1,-63.9Z" transform="translate(100 100)" /> -->
</svg>
